# AST/ASF file generated using VICON BodyLanguage
# -----------------------------------------------
:version 1.10
:name VICON
:units
  mass 1.0
  length 0.45
  angle deg
:documentation
   .ast/.asf automatically generated from VICON data using
   VICON BodyBuilder and BodyLanguage model FoxedUp or BRILLIANT.MOD
:root
   order TX TY TZ RX RY RZ
   axis XYZ
   position 0 0 0  
   orientation 0 0 0 
:bonedata
  begin
     id 1 
     name lhipjoint
     direction 0.623529 -0.717805 0.309788 
     length 2.23224 
     axis 0 0 0  XYZ
  end
  begin
     id 2 
     name lfemur
     direction 0.34202 -0.939693 0  
     length 7.11402  
     axis 0 0 20  XYZ
    dof rx ry rz
    limits (-160.0 20.0)
           (-70.0 70.0)
           (-60.0 70.0)
  end
  begin
     id 3 
     name ltibia
     direction 0.34202 -0.939693 0   
     length 6.78496   
     axis 0 0 20   XYZ
    dof rx
    limits (-10.0 170.0)
  end
  begin
     id 4 
     name lfoot
     direction 0.125078 -0.343648 0.930732   
     length 1.84054   
     axis -90 7.62852e-016 20   XYZ
    dof rx rz
    limits (-45.0 90.0)
           (-70.0 20.0)
  end
  begin
     id 5 
     name ltoes
     direction 1.53565e-011 -4.21893e-011 1   
     length 0.916474   
     axis -90 7.62852e-016 20   XYZ
    dof rx
    limits (-90.0 20.0)
  end
  begin
     id 6 
     name rhipjoint
     direction -0.564688 -0.757748 0.327026   
     length 2.11457  
     axis 0 0 0  XYZ 
  end
  begin
     id 7 
     name rfemur
     direction -0.34202 -0.939693 0   
     length 7.14609   
     axis 0 0 -20   XYZ
    dof rx ry rz
    limits (-160.0 20.0)
           (-70.0 70.0)
           (-70.0 60.0)
  end
  begin
     id 8 
     name rtibia
     direction -0.34202 -0.939693 0   
     length 6.78101   
     axis 0 0 -20   XYZ
    dof rx
    limits (-10.0 170.0)
 end
 begin
     id 9 
     name rfoot
     direction -0.0992671 -0.272734 0.956955   
     length 1.96168  
     axis -90 -7.62852e-016 -20   XYZ
    dof rx rz
    limits (-45.0 90.0)
           (-20.0 70.0)
  end
  begin
     id 10 
     name rtoes
     direction -1.5356e-011 -4.21891e-011 1   
     length 0.982933   
     axis -90 -7.62852e-016 -20   XYZ
    dof rx
    limits (-90.0 20.0)
  end
  begin
     id 11 
     name lowerback
     direction -0.00596953 0.998668 0.0512524   
     length 1.87557   
     axis 0 0 0   XYZ
    dof rx ry rz
    limits (-20.0 45.0)
           (-30.0 30.0)
           (-30.0 30.0)
  end
  begin
     id 12 
     name upperback
     direction 0.00584879 0.999652 0.0257308   
     length 1.87883   
     axis 0 0 0   XYZ
    dof rx ry rz
    limits (-20.0 45.0)
           (-30.0 30.0)
           (-30.0 30.0)
  end
  begin
     id 13 
     name thorax
     direction 0.010104 0.999947 0.00178881   
     length 1.87779   
     axis 0 0 0   XYZ
    dof rx ry rz
    limits (-20.0 45.0)
           (-30.0 30.0)
           (-30.0 30.0)
  end
  begin
     id 14 
     name lowerneck
     direction 0.0120771 0.995934 -0.0892773   
     length 1.40897   
     axis 0 0 0   XYZ
    dof rx ry rz
    limits (-20.0 45.0)
           (-30.0 30.0)
           (-30.0 30.0)
  end
  begin
     id 15 
     name upperneck
     direction -0.030568 0.999465 -0.0116366   
     length 1.38661   
     axis 0 0 0   XYZ
    dof rx ry rz
    limits (-20.0 45.0)
           (-30.0 30.0)
           (-30.0 30.0)
  end
  begin
     id 16
     name head
     direction -0.0170715 0.999854 -0.00104426  
     length 1.47052  
     axis 0 0 0   XYZ
    dof rx ry rz
    limits (-20.0 45.0)
           (-30.0 30.0)
           (-30.0 30.0)
  end
  begin
     id 17 
     name lclavicle
     direction 0.977763 0.206143 0.038532  
     length 3.02424  
     axis 0 0 0   XYZ
    dof ry rz
    limits (-20.0 10.0)
           (0.0 20.0)
  end
  begin
     id 18 
     name lhumerus
     direction 1 -4.48965e-011 -2.62654e-027   
     length 4.68382   
     axis 180 -30 -90   XYZ
    dof rx ry rz
    limits (-60.0 90.0)
           (-90.0 90.0)
           (-90.0 90.0)
  end
  begin
     id 19
     name lradius
     direction 1 -4.48973e-011 -1.54954e-027   
     length 2.98124   
     axis 180 -30 -90   XYZ
    dof rx
    limits (-10.0 170.0)
  end
  begin
     id 20
     name lwrist
     direction 1 -4.48959e-011 7.20928e-028   
     length 1.49062   
     axis -5.52449e-016 90 90   XYZ
    dof ry
    limits (-180.0 0.0)
 end
  begin
     id 21 
     name lhand
     direction 1 -4.48971e-011 1.44186e-027   
     length 0.707595   
     axis -9.20027e-016 90 90   XYZ
    dof rx rz
    limits (-90.0 90.0)
           (-45.0 45.0)
  end
  begin
     id 22 
     name lfingers
     direction 1 -4.48985e-011 2.88371e-027   
     length 0.570481   
     axis -1.84005e-015 90 90   XYZ
    dof rx
    limits (0.0 90.0)
  end
  begin
     id 23
     name lthumb
     direction 0.707107 -6.34929e-011 0.707107   
     length 0.819101   
     axis -90 45 2.85299e-015   XYZ
    dof rx rz
    limits (-45.0 45.0)
           (-45.0 45.0)
  end
  begin
     id 24 
     name rclavicle
     direction -0.958661 0.284411 -0.00895327   
     length 3.11921  
     axis 0 0 0   XYZ 
    dof ry rz
    limits (-10.0 20.0)
           (-20.0 0.0)
  end
  begin
     id 25 
     name rhumerus
     direction -1 -4.48963e-011 -4.22193e-027  
     length 4.75876   
     axis 180 30 90   XYZ
    dof rx ry rz
    limits (-90.0 60.0)
           (-90.0 90.0)
           (-90.0 90.0)
  end
  begin
     id 26 
     name rradius
     direction -1 -4.48968e-011 -1.07616e-027   
     length 2.93293   
     axis 180 30 90   XYZ
    dof rx
    limits (-10.0 170.0)
  end
  begin
     id 27 
     name rwrist
     direction -1 -4.48965e-011 7.20928e-028   
     length 1.46647   
     axis -5.52449e-016 -90 -90   XYZ
    dof ry
    limits (-180.0 0.0)
  end
  begin
     id 28
     name rhand
     direction -1 -4.48971e-011 1.44186e-027   
     length 0.831748   
     axis -9.20027e-016 -90 -90   XYZ
    dof rx rz
    limits (-90.0 90.0)
           (-45.0 45.0)
  end
  begin
     id 29
     name rfingers
     direction -1 -4.48961e-011 2.88371e-027   
     length 0.670577   
     axis -1.84005e-015 -90 -90   XYZ
    dof rx
    limits (0.0 90.0)
  end
  begin
     id 30
     name rthumb
     direction -0.707107 -6.34929e-011 0.707107   
     length 0.962818   
     axis -90 -45 -2.85299e-015   XYZ
    dof rx rz
    limits (-45.0 45.0)
           (-45.0 45.0)
  end
:hierarchy
  begin
    root lhipjoint rhipjoint lowerback
    lhipjoint lfemur
    lfemur ltibia
    ltibia lfoot
    lfoot ltoes
    rhipjoint rfemur
    rfemur rtibia
    rtibia rfoot
    rfoot rtoes
    lowerback upperback
    upperback thorax
    thorax lowerneck lclavicle rclavicle
    lowerneck upperneck
    upperneck head
    lclavicle lhumerus
    lhumerus lradius
    lradius lwrist
    lwrist lhand lthumb
    lhand lfingers
    rclavicle rhumerus
    rhumerus rradius
    rradius rwrist
    rwrist rhand rthumb
    rhand rfingers
  end

#!OML:ASF E:\id_vita\Project 1\Capture day 1\Session 1\Female.ASF
:FULLY-SPECIFIED
:DEGREES
850
root 6.08843 27.5869 1.31961 706.026 102.368 680.693
lowerback -13.018 -2.68727 -7.82508
upperback -3.48515 -2.25325 -1.47235
thorax 3.86005 -1.06749 2.49627
lowerneck 2.91946 -0.236193 -5.25554
upperneck -13.8773 0.566811 7.87789
head -4.64146 0.209784 3.27592
rclavicle -2.04253e-014 -2.54538e-014
rhumerus 11.7704 0.141314 -35.6044
rradius 96.1181
rwrist -6.6037
rhand -10.7952 14.7022
rfingers 7.12502
rthumb 15.2178 -14.7181
lclavicle -2.04253e-014 -2.54538e-014
lhumerus 49.6652 -12.2712 22.7333
lradius 69.5592
lwrist 0.476128
lhand -21.5211 28.2162
lfingers 7.12502
lthumb 4.87118 58.1402
rfemur -29.6694 21.3421 8.91196
rtibia 16.2283
rfoot -1.1333 -36.9146
rtoes 10.8243
lfemur -35.8192 -13.959 -17.5758
ltibia 27.7532
lfoot -11.8442 -4.99909
ltoes -8.51016
851
root 6.08134 27.5847 1.32264 705.95 102.407 680.691
lowerback -13.1441 -2.67906 -7.83296
upperback -3.385 -2.22423 -1.49955
thorax 4.03118 -1.06202 2.47075
lowerneck 2.88928 -0.29755 -5.21679
upperneck -13.9389 0.497 7.90134
head -4.65008 0.173792 3.28063
rclavicle -3.48987e-014 -3.63481e-014
rhumerus 11.8061 0.00562237 -35.7198
rradius 96.3379
rwrist -6.3975
rhand -10.8291 14.595
rfingers 7.12502
rthumb 15.1851 -14.8278
lclavicle -3.48987e-014 -3.63481e-014
lhumerus 49.7133 -12.2524 22.4698
lradius 69.7397
lwrist 0.474654
lhand -21.9608 28.4911
lfingers 7.12502
lthumb 4.44662 58.4245
rfemur -29.6797 21.2814 8.93423
rtibia 16.3762
rfoot -1.18971 -36.8571
rtoes 10.7272
lfemur -35.7897 -14.1809 -17.5154
ltibia 27.7866
lfoot -11.7589 -4.78557
ltoes -8.47261
852
root 6.07508 27.58 1.32793 705.976 102.475 680.774
lowerback -13.1928 -2.7469 -7.9287
upperback -3.3655 -2.29799 -1.45313
thorax 4.09112 -1.10185 2.55808
lowerneck 3.09034 -0.417795 -5.34562
upperneck -14.1267 0.344015 8.03611
head -4.73027 0.0927143 3.35513
rclavicle 1.17718e-015 -1.58531e-014
rhumerus 11.9607 0.1176 -35.6386
rradius 96.4376
rwrist -6.41387
rhand -10.8914 14.5254
rfingers 7.12502
rthumb 15.1251 -14.9019
lclavicle 1.17718e-015 -1.58531e-014
lhumerus 49.5588 -12.2609 22.4105
lradius 69.8604
lwrist 0.487428
lhand -21.9445 28.7899
lfingers 7.12502
lthumb 4.46235 58.7229
rfemur -29.7178 21.1932 8.98793
rtibia 16.5416
rfoot -0.872765 -36.8255
rtoes 9.84022
lfemur -35.7851 -14.3954 -17.4343
ltibia 27.8247
lfoot -11.7643 -4.62601
ltoes -8.56167
853
root 6.07148 27.5754 1.33369 706.12 102.461 680.915
lowerback -13.1901 -2.79175 -7.97295
upperback -3.45535 -2.35608 -1.39677
thorax 4.00439 -1.12448 2.63411
lowerneck 3.56686 -0.253741 -5.27217
upperneck -14.4733 0.548609 7.84095
head -4.93294 0.188811 3.27793
rclavicle 4.08161e-014 -6.86428e-015
rhumerus 11.8746 0.4042 -35.4512
rradius 96.7556
rwrist -6.68319
rhand -10.799 14.4411
rfingers 7.12502
rthumb 15.2141 -14.9795
lclavicle 4.08161e-014 -6.86428e-015
lhumerus 49.4642 -12.3547 22.3181
lradius 69.7207
lwrist 0.0914256
lhand -22.1674 28.8004
lfingers 7.12502
lthumb 4.24709 58.7378
rfemur -29.8697 21.1652 9.05275
rtibia 16.7274
rfoot -0.405517 -36.8087
rtoes 8.67182
lfemur -35.8383 -14.5874 -17.2799
ltibia 27.8523
lfoot -11.7358 -4.37778
ltoes -8.7054
854
root 6.06747 27.5736 1.33981 705.861 102.423 680.736
lowerback -13.1299 -2.78127 -8.04609
upperback -3.48781 -2.33883 -1.40097
thorax 3.93773 -1.11286 2.67628
lowerneck 2.69588 -0.582752 -5.42608
upperneck -13.3702 0.0335709 7.80389
head -4.41271 -0.0402563 3.29864
rclavicle 2.12762e-016 -1.27284e-014
rhumerus 11.6472 0.61959 -35.3018
rradius 97.0859
rwrist -6.8871
rhand -10.6702 14.2215
rfingers 7.12502
rthumb 15.3382 -15.1897
lclavicle 2.12762e-016 -1.27284e-014
lhumerus 49.5817 -12.443 22.059
lradius 69.562
lwrist -0.159929
lhand -22.3299 28.8631
lfingers 7.12502
lthumb 4.09022 58.8036
rfemur -29.9136 21.1887 9.07072
rtibia 16.9293
rfoot -0.627013 -36.7915
rtoes 9.15212
lfemur -35.769 -14.6398 -17.2736
ltibia 27.8765
lfoot -11.7434 -4.25171
ltoes -9.01234
855
root 6.06397 27.5739 1.34488 705.384 102.446 680.411
lowerback -13.1486 -2.76553 -8.17371
upperback -3.39207 -2.29522 -1.42781
thorax 4.04811 -1.09946 2.72398
lowerneck 2.70947 -0.354835 -5.40394
upperneck -13.3744 0.361912 7.90216
head -4.43869 0.116182 3.3112
rclavicle -4.26277e-014 -3.64708e-014
rhumerus 11.5749 0.616516 -35.2354
rradius 97.2801
rwrist -6.79435
rhand -10.6559 13.8418
rfingers 7.12502
rthumb 15.3519 -15.5683
lclavicle -4.26277e-014 -3.64708e-014
lhumerus 49.7687 -12.3589 21.9399
lradius 69.7385
lwrist 0.449979
lhand -21.4193 28.1207
lfingers 7.12502
lthumb 4.96951 58.0424
rfemur -29.8195 21.1839 9.07515
rtibia 17.1316
rfoot -1.06936 -36.7856
rtoes 9.99081
lfemur -35.6079 -14.709 -17.3641
ltibia 27.9083
lfoot -11.7632 -4.19718
ltoes -9.11861
856
root 6.05892 27.5719 1.34996 705.233 102.534 680.407
lowerback -13.1376 -2.79667 -8.25055
upperback -3.27923 -2.32612 -1.42283
thorax 4.1679 -1.12444 2.76437
lowerneck 2.2443 -0.577379 -5.59888
upperneck -13.0916 0.0636788 8.03232
head -4.25211 -0.0173424 3.39162
rclavicle 2.27375e-014 1.31571e-014
rhumerus 11.623 0.592999 -35.1864
rradius 97.3497
rwrist -6.76672
rhand -10.7391 13.9686
rfingers 7.12502
rthumb 15.2718 -15.4476
lclavicle 2.27375e-014 1.31571e-014
lhumerus 49.8219 -12.2612 21.7592
lradius 69.7366
lwrist 0.217553
lhand -22.0992 28.1664
lfingers 7.12502
lthumb 4.31296 58.1025
rfemur -29.7221 21.1014 9.14148
rtibia 17.3016
rfoot -1.08301 -36.7545
rtoes 9.76633
lfemur -35.5026 -14.9802 -17.3273
ltibia 27.9532
lfoot -11.6744 -4.01818
ltoes -9.02025
857
root 6.05016 27.5668 1.35661 705.172 102.55 680.473
lowerback -12.9465 -2.76062 -8.29134
upperback -3.34762 -2.29496 -1.43507
thorax 3.98842 -1.10092 2.78755
lowerneck 2.50867 -0.5368 -5.52229
upperneck -13.0393 0.0863314 7.90513
head -4.28372 -0.0117887 3.33901
rclavicle 2.71232e-014 6.51641e-015
rhumerus 11.4162 0.63401 -35.1848
rradius 97.4391
rwrist -6.80607
rhand -10.7351 14.3112
rfingers 7.12502
rthumb 15.2757 -15.1047
lclavicle 2.71232e-014 6.51641e-015
lhumerus 49.8486 -12.4185 21.5484
lradius 69.7515
lwrist 0.314005
lhand -21.9445 28.1087
lfingers 7.12502
lthumb 4.46233 58.0417
rfemur -29.6884 21.0742 9.22042
rtibia 17.4183
rfoot -0.917467 -36.6738
rtoes 9.21539
lfemur -35.4635 -15.1981 -17.2235
ltibia 28.0361
lfoot -11.5962 -3.79498
ltoes -9.3411
858
root 6.04347 27.5634 1.3631 705.215 102.498 680.594
lowerback -12.8821 -2.68168 -8.28675
upperback -3.45775 -2.19675 -1.4764
thorax 3.82414 -1.04144 2.7629
lowerneck 3.28715 -0.474256 -5.45965
upperneck -13.4428 0.170486 7.95693
head -4.54411 0.00507255 3.35019
rclavicle 4.73783e-015 4.06887e-014
rhumerus 11.2274 0.568173 -35.4207
rradius 97.6665
rwrist -6.60331
rhand -10.7202 14.7515
rfingers 7.12502
rthumb 15.29 -14.6634
lclavicle 4.73783e-015 4.06887e-014
lhumerus 49.9771 -12.7307 21.2549
lradius 69.5064
lwrist -0.106537
lhand -21.9962 29.0799
lfingers 7.12502
lthumb 4.41239 59.0139
rfemur -29.6848 21.1099 9.30757
rtibia 17.4853
rfoot -0.961841 -36.6094
rtoes 9.10507
lfemur -35.4867 -15.2218 -17.1377
ltibia 28.1685
lfoot -11.6217 -3.65738
ltoes -9.68258
859
root 6.04134 27.5609 1.36832 705.371 102.467 680.839
lowerback -13.0061 -2.6719 -8.26374
upperback -3.31171 -2.17248 -1.45813
thorax 4.04379 -1.04335 2.76643
lowerneck 3.18671 -0.476336 -5.65905
upperneck -13.6521 0.205991 8.17266
head -4.59161 0.0257356 3.45172
rclavicle 1.83239e-014 1.3449e-015
rhumerus 11.5303 0.395113 -35.5718
rradius 97.8135
rwrist -6.60792
rhand -10.849 15.3606
rfingers 7.12502
rthumb 15.166 -14.0636
lclavicle 1.83239e-014 1.3449e-015
lhumerus 50.2954 -12.5072 21.1473
lradius 69.3045
lwrist -0.16043
lhand -21.0026 28.8939
lfingers 7.12502
lthumb 5.37188 58.8058
rfemur -29.6136 21.1298 9.44263
rtibia 17.5005
rfoot -0.668858 -36.5854
rtoes 8.40982
lfemur -35.4887 -15.2347 -17.0601
ltibia 28.319
lfoot -11.6626 -3.5849
ltoes -9.56174
